<svg width="100%" height="100%" id="svg" viewBox="0 0 1440 690" xmlns="http://www.w3.org/2000/svg" class="transition duration-300 ease-in-out delay-150"><path d="M 0,700 C 0,700 0,175 0,175 C 89.39285714285714,202.17857142857144 178.78571428571428,229.35714285714286 313,234 C 447.2142857142857,238.64285714285714 626.2499999999999,220.75000000000003 742,205 C 857.7500000000001,189.24999999999997 910.2142857142858,175.64285714285714 1016,171 C 1121.7857142857142,166.35714285714286 1280.892857142857,170.67857142857144 1440,175 C 1440,175 1440,700 1440,700 Z" stroke="none" stroke-width="0" fill="#00d084" fill-opacity="0.4" class="transition-all duration-300 ease-in-out delay-150 path-0"></path><path d="M 0,700 C 0,700 0,350 0,350 C 108.89285714285714,372.3571428571429 217.78571428571428,394.7142857142857 335,392 C 452.2142857142857,389.2857142857143 577.75,361.50000000000006 698,341 C 818.25,320.49999999999994 933.2142857142858,307.2857142857143 1056,310 C 1178.7857142857142,312.7142857142857 1309.392857142857,331.3571428571429 1440,350 C 1440,350 1440,700 1440,700 Z" stroke="none" stroke-width="0" fill="#00d084" fill-opacity="0.53" class="transition-all duration-300 ease-in-out delay-150 path-1"></path><path d="M 0,700 C 0,700 0,525 0,525 C 95.78571428571428,513.1428571428571 191.57142857142856,501.2857142857143 336,502 C 480.42857142857144,502.7142857142857 673.5,516 785,518 C 896.5,520 926.4285714285713,510.7142857142858 1022,510 C 1117.5714285714287,509.2857142857142 1278.7857142857142,517.1428571428571 1440,525 C 1440,525 1440,700 1440,700 Z" stroke="none" stroke-width="0" fill="#00d084" fill-opacity="1" class="transition-all duration-300 ease-in-out delay-150 path-2"></path></svg>